<svg width="177" height="40" viewBox="0 0 177 40" fill="none" xmlns="http://www.w3.org/2000/svg">
<circle cx="20" cy="20" r="20" fill="#FF0000"/>
<circle cx="28" cy="20" r="6" fill="#FFE600"/>
<circle cx="20" cy="20" r="6" fill="white"/>
<circle cx="12" cy="20" r="6" fill="black"/>
<path d="M61.3125 23.9688H53.8281L52.9375 26.0312C52.6458 26.7188 52.5 27.2865 52.5 27.7344C52.5 28.3281 52.7396 28.7656 53.2188 29.0469C53.5 29.2135 54.1927 29.3385 55.2969 29.4219V30H48.25V29.4219C49.0104 29.3073 49.6354 28.9948 50.125 28.4844C50.6146 27.9635 51.2188 26.8958 51.9375 25.2812L59.5156 8.375H59.8125L67.4531 25.75C68.1823 27.3958 68.7812 28.4323 69.25 28.8594C69.6042 29.1823 70.1042 29.3698 70.75 29.4219V30H60.5V29.4219H60.9219C61.7448 29.4219 62.3229 29.3073 62.6562 29.0781C62.8854 28.9115 63 28.6719 63 28.3594C63 28.1719 62.9688 27.9792 62.9062 27.7812C62.8854 27.6875 62.7292 27.2969 62.4375 26.6094L61.3125 23.9688ZM60.7812 22.8125L57.625 15.5156L54.375 22.8125H60.7812ZM77.9219 8.8125V26.9688C77.9219 28 78.0417 28.6615 78.2812 28.9531C78.5208 29.2344 78.9896 29.3958 79.6875 29.4375V30H71.7969V29.4375C72.4427 29.4167 72.9219 29.2292 73.2344 28.875C73.4427 28.6354 73.5469 28 73.5469 26.9688V11.8438C73.5469 10.8229 73.4271 10.1719 73.1875 9.89062C72.9479 9.59896 72.4844 9.43229 71.7969 9.39062V8.8125H77.9219ZM88 14.9531C89.2708 14.9531 90.4531 15.2812 91.5469 15.9375C92.6406 16.5938 93.4688 17.526 94.0312 18.7344C94.6042 19.9427 94.8906 21.2656 94.8906 22.7031C94.8906 24.776 94.3646 26.5104 93.3125 27.9062C92.0417 29.5938 90.2865 30.4375 88.0469 30.4375C85.849 30.4375 84.1562 29.6667 82.9688 28.125C81.7812 26.5833 81.1875 24.7969 81.1875 22.7656C81.1875 20.6719 81.7917 18.849 83 17.2969C84.2188 15.7344 85.8854 14.9531 88 14.9531ZM88.0625 16.0625C87.5312 16.0625 87.0729 16.2656 86.6875 16.6719C86.3125 17.0677 86.0625 17.8594 85.9375 19.0469C85.8229 20.224 85.7656 21.8646 85.7656 23.9688C85.7656 25.0833 85.8385 26.125 85.9844 27.0938C86.099 27.8333 86.3438 28.3958 86.7188 28.7812C87.0938 29.1667 87.5208 29.3594 88 29.3594C88.4688 29.3594 88.8594 29.2292 89.1719 28.9688C89.5781 28.6146 89.849 28.1198 89.9844 27.4844C90.1927 26.4948 90.2969 24.4948 90.2969 21.4844C90.2969 19.7135 90.1979 18.5 90 17.8438C89.8021 17.1771 89.5104 16.6927 89.125 16.3906C88.8542 16.1719 88.5 16.0625 88.0625 16.0625ZM104 8.8125L114.453 21.9531V12.8438C114.453 11.5729 114.271 10.7135 113.906 10.2656C113.406 9.66146 112.568 9.36979 111.391 9.39062V8.8125H118.391V9.39062C117.495 9.50521 116.891 9.65625 116.578 9.84375C116.276 10.0208 116.036 10.3177 115.859 10.7344C115.693 11.1406 115.609 11.8438 115.609 12.8438V30.4844H115.078L100.75 12.8438V26.3125C100.75 27.5312 101.026 28.3542 101.578 28.7812C102.141 29.2083 102.781 29.4219 103.5 29.4219H104V30H96.4844V29.4219C97.651 29.4115 98.4635 29.1719 98.9219 28.7031C99.3802 28.2344 99.6094 27.4375 99.6094 26.3125V11.3594L99.1562 10.7969C98.7083 10.2344 98.3125 9.86458 97.9688 9.6875C97.625 9.51042 97.1302 9.41146 96.4844 9.39062V8.8125H104ZM132.609 22.1719H124.594C124.688 24.1094 125.203 25.6406 126.141 26.7656C126.859 27.6302 127.724 28.0625 128.734 28.0625C129.359 28.0625 129.927 27.8906 130.438 27.5469C130.948 27.1927 131.495 26.5625 132.078 25.6562L132.609 26C131.818 27.6146 130.943 28.7604 129.984 29.4375C129.026 30.1042 127.917 30.4375 126.656 30.4375C124.49 30.4375 122.849 29.6042 121.734 27.9375C120.839 26.5938 120.391 24.9271 120.391 22.9375C120.391 20.5 121.047 18.5625 122.359 17.125C123.682 15.6771 125.229 14.9531 127 14.9531C128.479 14.9531 129.76 15.5625 130.844 16.7812C131.938 17.9896 132.526 19.7865 132.609 22.1719ZM128.766 21.125C128.766 19.4479 128.672 18.2969 128.484 17.6719C128.307 17.0469 128.026 16.5729 127.641 16.25C127.422 16.0625 127.13 15.9688 126.766 15.9688C126.224 15.9688 125.781 16.2344 125.438 16.7656C124.823 17.6927 124.516 18.9635 124.516 20.5781V21.125H128.766ZM148.938 30.4375L144.938 19.7188L141.016 30.4375H140.203L136.312 19.8438C135.729 18.2292 135.234 17.1771 134.828 16.6875C134.568 16.3542 134.172 16.1146 133.641 15.9688V15.3906H141.016V15.9688C140.516 15.9688 140.172 16.0417 139.984 16.1875C139.797 16.3333 139.703 16.5 139.703 16.6875C139.703 16.8646 139.87 17.3958 140.203 18.2812L142.344 23.9844L144.406 18.2812L144.25 17.9062C143.938 17.125 143.661 16.6302 143.422 16.4219C143.193 16.2031 142.833 16.0521 142.344 15.9688V15.3906H149.828V15.9688C149.245 16 148.875 16.0833 148.719 16.2188C148.562 16.3438 148.484 16.526 148.484 16.7656C148.484 16.9948 148.635 17.5 148.938 18.2812L151 23.9844L152.875 18.7344C153.146 17.9844 153.281 17.474 153.281 17.2031C153.281 16.7969 153.182 16.5 152.984 16.3125C152.786 16.125 152.401 16.0104 151.828 15.9688V15.3906H156.156V15.9688C155.677 16.0312 155.297 16.2031 155.016 16.4844C154.734 16.7552 154.37 17.5365 153.922 18.8281L149.828 30.4375H148.938ZM166.812 14.9844L167.047 19.9688H166.516C165.88 18.4896 165.219 17.4792 164.531 16.9375C163.854 16.3958 163.177 16.125 162.5 16.125C162.073 16.125 161.708 16.2708 161.406 16.5625C161.104 16.8438 160.953 17.1719 160.953 17.5469C160.953 17.8281 161.057 18.099 161.266 18.3594C161.599 18.7865 162.531 19.5208 164.062 20.5625C165.594 21.5938 166.599 22.474 167.078 23.2031C167.568 23.9219 167.812 24.7292 167.812 25.625C167.812 26.4375 167.609 27.2344 167.203 28.0156C166.797 28.7969 166.224 29.3958 165.484 29.8125C164.745 30.2292 163.927 30.4375 163.031 30.4375C162.333 30.4375 161.401 30.2188 160.234 29.7812C159.922 29.6667 159.708 29.6094 159.594 29.6094C159.25 29.6094 158.964 29.8698 158.734 30.3906H158.219L157.969 25.1406H158.5C158.969 26.5156 159.609 27.5469 160.422 28.2344C161.245 28.9219 162.021 29.2656 162.75 29.2656C163.25 29.2656 163.656 29.1146 163.969 28.8125C164.292 28.5 164.453 28.125 164.453 27.6875C164.453 27.1875 164.297 26.7552 163.984 26.3906C163.672 26.026 162.974 25.474 161.891 24.7344C160.297 23.6302 159.266 22.7865 158.797 22.2031C158.109 21.349 157.766 20.4062 157.766 19.375C157.766 18.25 158.151 17.2344 158.922 16.3281C159.703 15.4115 160.828 14.9531 162.297 14.9531C163.089 14.9531 163.854 15.1458 164.594 15.5312C164.875 15.6875 165.104 15.7656 165.281 15.7656C165.469 15.7656 165.62 15.7292 165.734 15.6562C165.849 15.5729 166.031 15.349 166.281 14.9844H166.812ZM172.969 25.1875C173.698 25.1875 174.312 25.4427 174.812 25.9531C175.323 26.4635 175.578 27.0781 175.578 27.7969C175.578 28.5156 175.323 29.1302 174.812 29.6406C174.302 30.1406 173.688 30.3906 172.969 30.3906C172.25 30.3906 171.635 30.1406 171.125 29.6406C170.625 29.1302 170.375 28.5156 170.375 27.7969C170.375 27.0781 170.625 26.4635 171.125 25.9531C171.635 25.4427 172.25 25.1875 172.969 25.1875Z" fill="white"/>
</svg>
